<mxfile host="app.diagrams.net" modified="2023-11-03T16:38:58.290Z" agent="Mozilla/5.0 (X11; Ubuntu; Linux x86_64; rv:109.0) Gecko/20100101 Firefox/119.0" etag="p4boi-wP1m4kVzhFtQkO" version="22.0.8" type="device">
  <diagram name="Page-1" id="VROihxwrgbOlkJUYvocT">
    <mxGraphModel dx="2948" dy="1223" grid="1" gridSize="10" guides="1" tooltips="1" connect="1" arrows="1" fold="1" page="1" pageScale="1" pageWidth="850" pageHeight="1100" math="0" shadow="0">
      <root>
        <mxCell id="0" />
        <mxCell id="1" parent="0" />
        <mxCell id="6eJo8mfz17x_dN5SJdhs-16" style="edgeStyle=orthogonalEdgeStyle;rounded=0;orthogonalLoop=1;jettySize=auto;html=1;" edge="1" parent="1" source="6eJo8mfz17x_dN5SJdhs-1" target="6eJo8mfz17x_dN5SJdhs-10">
          <mxGeometry relative="1" as="geometry">
            <Array as="points">
              <mxPoint x="35" y="820" />
              <mxPoint x="35" y="820" />
            </Array>
          </mxGeometry>
        </mxCell>
        <mxCell id="6eJo8mfz17x_dN5SJdhs-57" style="edgeStyle=orthogonalEdgeStyle;rounded=0;orthogonalLoop=1;jettySize=auto;html=1;entryX=0.5;entryY=1;entryDx=0;entryDy=0;" edge="1" parent="1" source="6eJo8mfz17x_dN5SJdhs-1" target="6eJo8mfz17x_dN5SJdhs-56">
          <mxGeometry relative="1" as="geometry" />
        </mxCell>
        <mxCell id="6eJo8mfz17x_dN5SJdhs-74" style="edgeStyle=orthogonalEdgeStyle;rounded=0;orthogonalLoop=1;jettySize=auto;html=1;exitX=0.75;exitY=0;exitDx=0;exitDy=0;entryX=0.5;entryY=1;entryDx=0;entryDy=0;" edge="1" parent="1" source="6eJo8mfz17x_dN5SJdhs-1" target="6eJo8mfz17x_dN5SJdhs-62">
          <mxGeometry relative="1" as="geometry" />
        </mxCell>
        <mxCell id="6eJo8mfz17x_dN5SJdhs-1" value="Desktop" style="rounded=1;whiteSpace=wrap;html=1;" vertex="1" parent="1">
          <mxGeometry x="-230" y="730" width="1170" height="60" as="geometry" />
        </mxCell>
        <mxCell id="6eJo8mfz17x_dN5SJdhs-2" value="Camera 3" style="rounded=1;whiteSpace=wrap;html=1;" vertex="1" parent="1">
          <mxGeometry x="620" y="860" width="80" height="40" as="geometry" />
        </mxCell>
        <mxCell id="6eJo8mfz17x_dN5SJdhs-66" style="edgeStyle=orthogonalEdgeStyle;rounded=0;orthogonalLoop=1;jettySize=auto;html=1;entryX=0.75;entryY=1;entryDx=0;entryDy=0;" edge="1" parent="1" source="6eJo8mfz17x_dN5SJdhs-6" target="6eJo8mfz17x_dN5SJdhs-1">
          <mxGeometry relative="1" as="geometry" />
        </mxCell>
        <mxCell id="6eJo8mfz17x_dN5SJdhs-6" value="Camera 1" style="rounded=1;whiteSpace=wrap;html=1;" vertex="1" parent="1">
          <mxGeometry x="440" y="860" width="80" height="40" as="geometry" />
        </mxCell>
        <mxCell id="6eJo8mfz17x_dN5SJdhs-72" style="edgeStyle=orthogonalEdgeStyle;rounded=0;orthogonalLoop=1;jettySize=auto;html=1;entryX=0.75;entryY=1;entryDx=0;entryDy=0;" edge="1" parent="1" source="6eJo8mfz17x_dN5SJdhs-7" target="6eJo8mfz17x_dN5SJdhs-1">
          <mxGeometry relative="1" as="geometry" />
        </mxCell>
        <mxCell id="6eJo8mfz17x_dN5SJdhs-7" value="Camera 2" style="rounded=1;whiteSpace=wrap;html=1;" vertex="1" parent="1">
          <mxGeometry x="530" y="860" width="80" height="40" as="geometry" />
        </mxCell>
        <mxCell id="6eJo8mfz17x_dN5SJdhs-73" style="edgeStyle=orthogonalEdgeStyle;rounded=0;orthogonalLoop=1;jettySize=auto;html=1;entryX=0.75;entryY=1;entryDx=0;entryDy=0;" edge="1" parent="1" source="6eJo8mfz17x_dN5SJdhs-8" target="6eJo8mfz17x_dN5SJdhs-1">
          <mxGeometry relative="1" as="geometry" />
        </mxCell>
        <mxCell id="6eJo8mfz17x_dN5SJdhs-8" value="Camera 4" style="rounded=1;whiteSpace=wrap;html=1;" vertex="1" parent="1">
          <mxGeometry x="710" y="860" width="80" height="40" as="geometry" />
        </mxCell>
        <mxCell id="6eJo8mfz17x_dN5SJdhs-20" style="edgeStyle=orthogonalEdgeStyle;rounded=0;orthogonalLoop=1;jettySize=auto;html=1;entryX=0.5;entryY=0;entryDx=0;entryDy=0;" edge="1" parent="1" source="6eJo8mfz17x_dN5SJdhs-10" target="6eJo8mfz17x_dN5SJdhs-19">
          <mxGeometry relative="1" as="geometry" />
        </mxCell>
        <mxCell id="6eJo8mfz17x_dN5SJdhs-10" value="U2D2" style="rounded=1;whiteSpace=wrap;html=1;" vertex="1" parent="1">
          <mxGeometry x="-5" y="840" width="80" height="30" as="geometry" />
        </mxCell>
        <mxCell id="6eJo8mfz17x_dN5SJdhs-17" value="Teacher Board" style="rounded=1;whiteSpace=wrap;html=1;" vertex="1" parent="1">
          <mxGeometry x="255" y="840" width="120" height="60" as="geometry" />
        </mxCell>
        <mxCell id="6eJo8mfz17x_dN5SJdhs-19" value="Dynamixels" style="rounded=1;whiteSpace=wrap;html=1;" vertex="1" parent="1">
          <mxGeometry x="-25" y="910" width="120" height="60" as="geometry" />
        </mxCell>
        <mxCell id="6eJo8mfz17x_dN5SJdhs-23" value="" style="edgeStyle=orthogonalEdgeStyle;rounded=0;orthogonalLoop=1;jettySize=auto;html=1;" edge="1" parent="1" source="6eJo8mfz17x_dN5SJdhs-21" target="6eJo8mfz17x_dN5SJdhs-17">
          <mxGeometry relative="1" as="geometry">
            <mxPoint x="315" y="1090" as="targetPoint" />
          </mxGeometry>
        </mxCell>
        <mxCell id="6eJo8mfz17x_dN5SJdhs-21" value="Encoders" style="rounded=1;whiteSpace=wrap;html=1;" vertex="1" parent="1">
          <mxGeometry x="255" y="930" width="120" height="60" as="geometry" />
        </mxCell>
        <mxCell id="6eJo8mfz17x_dN5SJdhs-25" value="&lt;font style=&quot;font-size: 18px;&quot;&gt;Driver Layer&lt;/font&gt;" style="text;html=1;strokeColor=none;fillColor=none;align=center;verticalAlign=middle;whiteSpace=wrap;rounded=0;" vertex="1" parent="1">
          <mxGeometry x="-410" y="620" width="115" height="50" as="geometry" />
        </mxCell>
        <mxCell id="6eJo8mfz17x_dN5SJdhs-41" style="edgeStyle=orthogonalEdgeStyle;rounded=0;orthogonalLoop=1;jettySize=auto;html=1;exitX=0.5;exitY=1;exitDx=0;exitDy=0;" edge="1" parent="1" source="6eJo8mfz17x_dN5SJdhs-26">
          <mxGeometry relative="1" as="geometry">
            <mxPoint x="40" y="730" as="targetPoint" />
            <Array as="points">
              <mxPoint x="40" y="715" />
              <mxPoint x="40" y="715" />
            </Array>
          </mxGeometry>
        </mxCell>
        <mxCell id="6eJo8mfz17x_dN5SJdhs-26" value="&lt;div&gt;&lt;b&gt;interbotix_xs_sdk&lt;/b&gt;&lt;/div&gt;&lt;div&gt;- Wrapper for interbotix_xs_driver&lt;br&gt;&lt;/div&gt;" style="rounded=1;whiteSpace=wrap;html=1;align=center;verticalAlign=top;" vertex="1" parent="1">
          <mxGeometry x="-105" y="600" width="290" height="90" as="geometry" />
        </mxCell>
        <mxCell id="6eJo8mfz17x_dN5SJdhs-27" value="&lt;div&gt;&lt;b&gt;&lt;br&gt;&lt;/b&gt; &lt;/div&gt;&lt;div&gt;&lt;b&gt;interbotix_xs_driver&lt;/b&gt;&lt;br&gt;&lt;/div&gt;&lt;div&gt;- interfaces to control the DYNAMIXEL servos&lt;/div&gt;" style="rounded=1;whiteSpace=wrap;html=1;movable=1;resizable=1;rotatable=1;deletable=1;editable=1;locked=0;connectable=1;" vertex="1" parent="1">
          <mxGeometry x="-95" y="640" width="270" height="40" as="geometry" />
        </mxCell>
        <mxCell id="6eJo8mfz17x_dN5SJdhs-37" style="edgeStyle=orthogonalEdgeStyle;rounded=0;orthogonalLoop=1;jettySize=auto;html=1;entryX=0.5;entryY=0;entryDx=0;entryDy=0;" edge="1" parent="1" source="6eJo8mfz17x_dN5SJdhs-32" target="6eJo8mfz17x_dN5SJdhs-26">
          <mxGeometry relative="1" as="geometry" />
        </mxCell>
        <mxCell id="6eJo8mfz17x_dN5SJdhs-32" value="&lt;b&gt;hawaii_control&lt;/b&gt;" style="rounded=1;whiteSpace=wrap;html=1;verticalAlign=top;" vertex="1" parent="1">
          <mxGeometry x="-175" y="440" width="430" height="130" as="geometry" />
        </mxCell>
        <mxCell id="6eJo8mfz17x_dN5SJdhs-33" value="&lt;div&gt;&lt;b&gt;Configs&lt;/b&gt;&lt;/div&gt;&lt;div&gt;&lt;ul&gt;&lt;li&gt;&lt;div align=&quot;left&quot;&gt;motor configs for each arm&lt;/div&gt;&lt;/li&gt;&lt;li&gt;&lt;div align=&quot;left&quot;&gt;mode configs&lt;/div&gt;&lt;/li&gt;&lt;/ul&gt;&lt;/div&gt;" style="rounded=1;whiteSpace=wrap;html=1;verticalAlign=top;" vertex="1" parent="1">
          <mxGeometry x="-155" y="470" width="130" height="80" as="geometry" />
        </mxCell>
        <mxCell id="6eJo8mfz17x_dN5SJdhs-34" value="&lt;div&gt;&lt;b&gt;hawaii_control.launch&lt;/b&gt;&lt;/div&gt;&lt;div align=&quot;left&quot;&gt;&lt;ul&gt;&lt;li&gt;starts up sdk&lt;/li&gt;&lt;li&gt;passes parameters to hawaii_descriptions to load URDF&lt;b&gt;&lt;br&gt;&lt;/b&gt;&lt;/li&gt;&lt;/ul&gt;&lt;/div&gt;" style="rounded=1;whiteSpace=wrap;html=1;verticalAlign=top;horizontal=1;" vertex="1" parent="1">
          <mxGeometry x="5" y="470" width="230" height="80" as="geometry" />
        </mxCell>
        <mxCell id="6eJo8mfz17x_dN5SJdhs-45" style="edgeStyle=orthogonalEdgeStyle;rounded=0;orthogonalLoop=1;jettySize=auto;html=1;entryX=0.5;entryY=0;entryDx=0;entryDy=0;" edge="1" parent="1" source="6eJo8mfz17x_dN5SJdhs-38" target="6eJo8mfz17x_dN5SJdhs-32">
          <mxGeometry relative="1" as="geometry" />
        </mxCell>
        <mxCell id="6eJo8mfz17x_dN5SJdhs-38" value="&lt;div&gt;&lt;b&gt;interbotix_ros_toolboxes&lt;/b&gt;&lt;/div&gt;&lt;div&gt;&lt;b&gt;&lt;br&gt;&lt;/b&gt;&lt;/div&gt;" style="rounded=1;whiteSpace=wrap;html=1;verticalAlign=top;" vertex="1" parent="1">
          <mxGeometry x="-240" y="310" width="560" height="80" as="geometry" />
        </mxCell>
        <mxCell id="6eJo8mfz17x_dN5SJdhs-39" value="&lt;b&gt;interbotix_xs_modules ARM api&lt;br&gt;&lt;/b&gt;" style="rounded=1;whiteSpace=wrap;html=1;verticalAlign=middle;" vertex="1" parent="1">
          <mxGeometry x="-220" y="340" width="130" height="40" as="geometry" />
        </mxCell>
        <mxCell id="6eJo8mfz17x_dN5SJdhs-40" value="&lt;b&gt;interbotix_xs_ros_control&lt;/b&gt;" style="rounded=1;whiteSpace=wrap;html=1;verticalAlign=middle;" vertex="1" parent="1">
          <mxGeometry x="-60" y="340" width="170" height="40" as="geometry" />
        </mxCell>
        <mxCell id="6eJo8mfz17x_dN5SJdhs-42" value="&lt;b&gt;interbotix_moveit_interface&lt;/b&gt;" style="rounded=1;whiteSpace=wrap;html=1;verticalAlign=middle;" vertex="1" parent="1">
          <mxGeometry x="140" y="340" width="160" height="40" as="geometry" />
        </mxCell>
        <mxCell id="6eJo8mfz17x_dN5SJdhs-47" value="&lt;font style=&quot;font-size: 18px;&quot;&gt;Control Layer&lt;/font&gt;" style="text;html=1;strokeColor=none;fillColor=none;align=center;verticalAlign=middle;whiteSpace=wrap;rounded=0;" vertex="1" parent="1">
          <mxGeometry x="-410" y="490" width="115" height="50" as="geometry" />
        </mxCell>
        <mxCell id="6eJo8mfz17x_dN5SJdhs-48" value="&lt;font style=&quot;font-size: 18px;&quot;&gt;Support Layer&lt;/font&gt;" style="text;html=1;strokeColor=none;fillColor=none;align=center;verticalAlign=middle;whiteSpace=wrap;rounded=0;" vertex="1" parent="1">
          <mxGeometry x="-410" y="325" width="115" height="50" as="geometry" />
        </mxCell>
        <mxCell id="6eJo8mfz17x_dN5SJdhs-61" style="edgeStyle=orthogonalEdgeStyle;rounded=0;orthogonalLoop=1;jettySize=auto;html=1;entryX=0.5;entryY=0;entryDx=0;entryDy=0;" edge="1" parent="1" source="6eJo8mfz17x_dN5SJdhs-49" target="6eJo8mfz17x_dN5SJdhs-38">
          <mxGeometry relative="1" as="geometry" />
        </mxCell>
        <mxCell id="6eJo8mfz17x_dN5SJdhs-49" value="&lt;div&gt;&lt;b&gt;hawaii_moveit&lt;br&gt;&lt;/b&gt;&lt;/div&gt;&lt;div align=&quot;left&quot;&gt;&lt;ul&gt;&lt;li&gt;contains the config files necessary to launch an arm using MoveIt either in Gazebo, on the physical robot, or just in RViz&lt;/li&gt;&lt;li&gt;(Moveit is motion planning software)&lt;br&gt;&lt;/li&gt;&lt;/ul&gt;&lt;/div&gt;" style="rounded=1;whiteSpace=wrap;html=1;verticalAlign=top;" vertex="1" parent="1">
          <mxGeometry x="-240" y="140" width="260" height="120" as="geometry" />
        </mxCell>
        <mxCell id="6eJo8mfz17x_dN5SJdhs-60" style="edgeStyle=orthogonalEdgeStyle;rounded=0;orthogonalLoop=1;jettySize=auto;html=1;entryX=0.5;entryY=0;entryDx=0;entryDy=0;" edge="1" parent="1" source="6eJo8mfz17x_dN5SJdhs-50" target="6eJo8mfz17x_dN5SJdhs-38">
          <mxGeometry relative="1" as="geometry" />
        </mxCell>
        <mxCell id="6eJo8mfz17x_dN5SJdhs-50" value="&lt;div&gt;&lt;b&gt;hawaii_ros_control&lt;br&gt;&lt;/b&gt;&lt;/div&gt;&lt;div align=&quot;left&quot;&gt;&lt;ul&gt;&lt;li&gt;Takes in Joint Trajectory commands from MoveIt (via the &lt;br&gt;FollowJointTrajectoryAction interface) and then publishes joint commands&lt;br&gt; at the right time to the &lt;strong&gt;xs_sdk&lt;/strong&gt; node&lt;/li&gt;&lt;li&gt;contains the config files necessary to setup ROS controllers between MoveIt and the physical robot arm&lt;/li&gt;&lt;/ul&gt;&lt;/div&gt;" style="rounded=1;whiteSpace=wrap;html=1;verticalAlign=top;" vertex="1" parent="1">
          <mxGeometry x="60" y="140" width="490" height="120" as="geometry" />
        </mxCell>
        <mxCell id="6eJo8mfz17x_dN5SJdhs-51" value="&lt;font style=&quot;font-size: 18px;&quot;&gt;Application/Research Layer&lt;/font&gt;" style="text;html=1;strokeColor=none;fillColor=none;align=center;verticalAlign=middle;whiteSpace=wrap;rounded=0;" vertex="1" parent="1">
          <mxGeometry x="-410" y="175" width="115" height="50" as="geometry" />
        </mxCell>
        <mxCell id="6eJo8mfz17x_dN5SJdhs-54" style="edgeStyle=orthogonalEdgeStyle;rounded=0;orthogonalLoop=1;jettySize=auto;html=1;exitX=0.5;exitY=0;exitDx=0;exitDy=0;" edge="1" parent="1" source="6eJo8mfz17x_dN5SJdhs-17" target="6eJo8mfz17x_dN5SJdhs-1">
          <mxGeometry relative="1" as="geometry" />
        </mxCell>
        <mxCell id="6eJo8mfz17x_dN5SJdhs-58" style="edgeStyle=orthogonalEdgeStyle;rounded=0;orthogonalLoop=1;jettySize=auto;html=1;entryX=1;entryY=0.5;entryDx=0;entryDy=0;" edge="1" parent="1" source="6eJo8mfz17x_dN5SJdhs-56" target="6eJo8mfz17x_dN5SJdhs-38">
          <mxGeometry relative="1" as="geometry" />
        </mxCell>
        <mxCell id="6eJo8mfz17x_dN5SJdhs-59" value="ARM API .set_joint_positions" style="edgeLabel;html=1;align=center;verticalAlign=middle;resizable=0;points=[];" vertex="1" connectable="0" parent="6eJo8mfz17x_dN5SJdhs-58">
          <mxGeometry x="0.1733" y="-2" relative="1" as="geometry">
            <mxPoint as="offset" />
          </mxGeometry>
        </mxCell>
        <mxCell id="6eJo8mfz17x_dN5SJdhs-75" style="edgeStyle=orthogonalEdgeStyle;rounded=0;orthogonalLoop=1;jettySize=auto;html=1;entryX=0;entryY=0.5;entryDx=0;entryDy=0;" edge="1" parent="1" source="6eJo8mfz17x_dN5SJdhs-56" target="6eJo8mfz17x_dN5SJdhs-62">
          <mxGeometry relative="1" as="geometry" />
        </mxCell>
        <mxCell id="6eJo8mfz17x_dN5SJdhs-56" value="Get Joint States" style="rounded=1;whiteSpace=wrap;html=1;" vertex="1" parent="1">
          <mxGeometry x="290" y="560" width="120" height="60" as="geometry" />
        </mxCell>
        <mxCell id="6eJo8mfz17x_dN5SJdhs-76" style="edgeStyle=orthogonalEdgeStyle;rounded=0;orthogonalLoop=1;jettySize=auto;html=1;entryX=0.5;entryY=1;entryDx=0;entryDy=0;" edge="1" parent="1" source="6eJo8mfz17x_dN5SJdhs-62" target="6eJo8mfz17x_dN5SJdhs-63">
          <mxGeometry relative="1" as="geometry" />
        </mxCell>
        <mxCell id="6eJo8mfz17x_dN5SJdhs-62" value="&lt;div&gt;&lt;b&gt;Record Episodes&lt;/b&gt;&lt;/div&gt;&lt;div&gt;&lt;br&gt;&lt;/div&gt;&lt;div&gt;observations&lt;/div&gt;&amp;nbsp;&amp;nbsp;&amp;nbsp; - images&lt;br&gt;&amp;nbsp;&amp;nbsp;&amp;nbsp;&amp;nbsp;&amp;nbsp;&amp;nbsp;&amp;nbsp; - cam_high&amp;nbsp;&amp;nbsp;&amp;nbsp;&amp;nbsp;&amp;nbsp;&amp;nbsp;&amp;nbsp;&amp;nbsp;&amp;nbsp; (480, 640, 3) &#39;uint8&#39;&lt;br&gt;&amp;nbsp;&amp;nbsp;&amp;nbsp;&amp;nbsp;&amp;nbsp;&amp;nbsp;&amp;nbsp; - cam_low&amp;nbsp;&amp;nbsp;&amp;nbsp;&amp;nbsp;&amp;nbsp;&amp;nbsp;&amp;nbsp;&amp;nbsp;&amp;nbsp;&amp;nbsp; (480, 640, 3) &#39;uint8&#39;&lt;br&gt;&amp;nbsp;&amp;nbsp;&amp;nbsp;&amp;nbsp;&amp;nbsp;&amp;nbsp;&amp;nbsp; - cam_left_wrist&amp;nbsp;&amp;nbsp;&amp;nbsp; (480, 640, 3) &#39;uint8&#39;&lt;br&gt;&amp;nbsp;&amp;nbsp;&amp;nbsp;&amp;nbsp;&amp;nbsp;&amp;nbsp;&amp;nbsp; - cam_right_wrist&amp;nbsp;&amp;nbsp; (480, 640, 3) &#39;uint8&#39;&lt;br&gt;&amp;nbsp;&amp;nbsp;&amp;nbsp; - qpos&amp;nbsp;&amp;nbsp;&amp;nbsp;&amp;nbsp;&amp;nbsp;&amp;nbsp;&amp;nbsp;&amp;nbsp;&amp;nbsp;&amp;nbsp;&amp;nbsp;&amp;nbsp;&amp;nbsp;&amp;nbsp;&amp;nbsp;&amp;nbsp;&amp;nbsp; (14,)&amp;nbsp;&amp;nbsp;&amp;nbsp;&amp;nbsp;&amp;nbsp;&amp;nbsp;&amp;nbsp;&amp;nbsp; &#39;float64&#39;&lt;br&gt;&amp;nbsp;&amp;nbsp;&amp;nbsp; - qvel&amp;nbsp;&amp;nbsp;&amp;nbsp;&amp;nbsp;&amp;nbsp;&amp;nbsp;&amp;nbsp;&amp;nbsp;&amp;nbsp;&amp;nbsp;&amp;nbsp;&amp;nbsp;&amp;nbsp;&amp;nbsp;&amp;nbsp;&amp;nbsp;&amp;nbsp; (14,)&amp;nbsp;&amp;nbsp;&amp;nbsp;&amp;nbsp;&amp;nbsp;&amp;nbsp;&amp;nbsp;&amp;nbsp; &#39;float64&#39;&lt;br&gt;&amp;nbsp;&amp;nbsp; &amp;nbsp;&lt;br&gt;&amp;nbsp;&amp;nbsp;&amp;nbsp; action&amp;nbsp;&amp;nbsp;&amp;nbsp;&amp;nbsp;&amp;nbsp;&amp;nbsp;&amp;nbsp;&amp;nbsp;&amp;nbsp;&amp;nbsp;&amp;nbsp;&amp;nbsp;&amp;nbsp;&amp;nbsp;&amp;nbsp;&amp;nbsp;&amp;nbsp; (14,)&amp;nbsp;&amp;nbsp;&amp;nbsp;&amp;nbsp;&amp;nbsp;&amp;nbsp;&amp;nbsp;&amp;nbsp; &#39;float64&#39;" style="rounded=1;whiteSpace=wrap;html=1;" vertex="1" parent="1">
          <mxGeometry x="560" y="410" width="310" height="250" as="geometry" />
        </mxCell>
        <mxCell id="6eJo8mfz17x_dN5SJdhs-77" style="edgeStyle=orthogonalEdgeStyle;rounded=0;orthogonalLoop=1;jettySize=auto;html=1;entryX=1;entryY=0.5;entryDx=0;entryDy=0;" edge="1" parent="1" source="6eJo8mfz17x_dN5SJdhs-63" target="6eJo8mfz17x_dN5SJdhs-38">
          <mxGeometry relative="1" as="geometry">
            <Array as="points">
              <mxPoint x="483" y="280" />
              <mxPoint x="483" y="350" />
            </Array>
          </mxGeometry>
        </mxCell>
        <mxCell id="6eJo8mfz17x_dN5SJdhs-84" value="use ARM api to control robot" style="edgeLabel;html=1;align=center;verticalAlign=middle;resizable=0;points=[];" vertex="1" connectable="0" parent="6eJo8mfz17x_dN5SJdhs-77">
          <mxGeometry x="0.2251" y="5" relative="1" as="geometry">
            <mxPoint as="offset" />
          </mxGeometry>
        </mxCell>
        <mxCell id="6eJo8mfz17x_dN5SJdhs-63" value="&lt;div&gt;ACT Training&lt;/div&gt;&lt;div&gt;&lt;br&gt;&lt;/div&gt;&lt;div&gt;imitate_episodes.py&lt;/div&gt;&lt;div&gt;imitate_episodes.py --eval to try irl&lt;br&gt;&lt;/div&gt;" style="rounded=0;whiteSpace=wrap;html=1;" vertex="1" parent="1">
          <mxGeometry x="710" y="200" width="330" height="90" as="geometry" />
        </mxCell>
        <mxCell id="6eJo8mfz17x_dN5SJdhs-70" style="edgeStyle=orthogonalEdgeStyle;rounded=0;orthogonalLoop=1;jettySize=auto;html=1;entryX=0.75;entryY=1;entryDx=0;entryDy=0;" edge="1" parent="1" source="6eJo8mfz17x_dN5SJdhs-2" target="6eJo8mfz17x_dN5SJdhs-1">
          <mxGeometry relative="1" as="geometry" />
        </mxCell>
        <mxCell id="6eJo8mfz17x_dN5SJdhs-79" value="" style="shape=mxgraph.mockup.markup.redX;fillColor=#ff0000;html=1;shadow=0;whiteSpace=wrap;strokeColor=none;" vertex="1" parent="1">
          <mxGeometry x="-205" y="150" width="200" height="100" as="geometry" />
        </mxCell>
        <mxCell id="6eJo8mfz17x_dN5SJdhs-80" value="" style="shape=mxgraph.mockup.markup.redX;fillColor=#ff0000;html=1;shadow=0;whiteSpace=wrap;strokeColor=none;" vertex="1" parent="1">
          <mxGeometry x="205" y="150" width="200" height="100" as="geometry" />
        </mxCell>
        <mxCell id="6eJo8mfz17x_dN5SJdhs-81" value="" style="shape=mxgraph.mockup.markup.redX;fillColor=#ff0000;html=1;shadow=0;whiteSpace=wrap;strokeColor=none;" vertex="1" parent="1">
          <mxGeometry x="-27.5" y="335" width="125" height="50" as="geometry" />
        </mxCell>
        <mxCell id="6eJo8mfz17x_dN5SJdhs-82" value="" style="shape=mxgraph.mockup.markup.redX;fillColor=#ff0000;html=1;shadow=0;whiteSpace=wrap;strokeColor=none;" vertex="1" parent="1">
          <mxGeometry x="157.5" y="335" width="125" height="50" as="geometry" />
        </mxCell>
      </root>
    </mxGraphModel>
  </diagram>
</mxfile>
